<?xml version="1.0" encoding="UTF-8" standalone="no"?>
<!-- Created with Inkscape (http://www.inkscape.org/) -->

<svg
   xmlns:dc="http://purl.org/dc/elements/1.1/"
   xmlns:cc="http://creativecommons.org/ns#"
   xmlns:rdf="http://www.w3.org/1999/02/22-rdf-syntax-ns#"
   xmlns:svg="http://www.w3.org/2000/svg"
   xmlns="http://www.w3.org/2000/svg"
   xmlns:sodipodi="http://sodipodi.sourceforge.net/DTD/sodipodi-0.dtd"
   xmlns:inkscape="http://www.inkscape.org/namespaces/inkscape"
   width="18.062222mm"
   height="18.062222mm"
   viewBox="0 0 63.999998 63.999997"
   id="svg7038"
   version="1.1"
   inkscape:version="0.91 r13725"
   sodipodi:docname="transactions.svg">
  <defs
     id="defs7040" />
  <sodipodi:namedview
     id="base"
     pagecolor="#ffffff"
     bordercolor="#666666"
     borderopacity="1.0"
     inkscape:pageopacity="0.0"
     inkscape:pageshadow="2"
     inkscape:zoom="0.35"
     inkscape:cx="-134.42857"
     inkscape:cy="-53.714285"
     inkscape:document-units="px"
     inkscape:current-layer="layer1"
     showgrid="false"
     showborder="false"
     fit-margin-top="0"
     fit-margin-left="0"
     fit-margin-right="0"
     fit-margin-bottom="0"
     inkscape:window-width="1366"
     inkscape:window-height="685"
     inkscape:window-x="0"
     inkscape:window-y="24"
     inkscape:window-maximized="1" />
  <metadata
     id="metadata7043">
    <rdf:RDF>
      <cc:Work
         rdf:about="">
        <dc:format>image/svg+xml</dc:format>
        <dc:type
           rdf:resource="http://purl.org/dc/dcmitype/StillImage" />
        <dc:title></dc:title>
      </cc:Work>
    </rdf:RDF>
  </metadata>
  <g
     inkscape:label="Layer 1"
     inkscape:groupmode="layer"
     id="layer1"
     transform="translate(-459.42857,-414.64792)">
    <path
       style="opacity:1;fill:#000000;fill-opacity:1;fill-rule:nonzero;stroke:none;stroke-width:25;stroke-linecap:round;stroke-linejoin:round;stroke-miterlimit:4;stroke-dasharray:none;stroke-opacity:1"
       d="m 491.42857,414.64792 a 32,32 0 0 0 -32,32 32,32 0 0 0 32,32 32,32 0 0 0 32,-32 32,32 0 0 0 -32,-32 z m 0,2.5 a 29.5,29.5 0 0 1 29.5,29.5 29.5,29.5 0 0 1 -29.5,29.5 29.5,29.5 0 0 1 -29.5,-29.5 29.5,29.5 0 0 1 29.5,-29.5 z m 7.1919,16.02978 c -0.40031,0.0225 -0.78195,0.23753 -1.00342,0.60938 -0.35437,0.59496 -0.16039,1.3595 0.43457,1.71387 l 9.2915,5.53418 -36.36035,0 c -0.6925,0 -1.25,0.5575 -1.25,1.25 0,0.6925 0.5575,1.25 1.25,1.25 l 40.8916,0 c 0.54206,0 0.99739,-0.34368 1.17139,-0.82422 0.007,-0.0192 0.0114,-0.0387 0.0176,-0.0581 0.0204,-0.0661 0.0396,-0.13225 0.0488,-0.20263 5e-5,-3.5e-4 4.5e-4,-6.3e-4 4.9e-4,-9.8e-4 5e-5,-3.3e-4 -4e-5,-6.5e-4 0,-9.8e-4 0.007,-0.0534 0.0117,-0.1077 0.0117,-0.16308 0,-0.019 -0.002,-0.0374 -0.003,-0.0562 -5.2e-4,-0.0131 -10e-4,-0.026 -0.002,-0.0391 -0.005,-0.061 -0.0139,-0.12049 -0.0269,-0.17871 -0.012,-0.0549 -0.0305,-0.10777 -0.0498,-0.16064 -0.008,-0.0224 -0.0144,-0.0456 -0.0239,-0.0674 -0.0252,-0.0583 -0.0572,-0.11326 -0.0913,-0.16748 -0.008,-0.0122 -0.0138,-0.0252 -0.022,-0.0371 -0.0383,-0.0564 -0.0825,-0.10855 -0.13037,-0.15869 -0.008,-0.008 -0.0142,-0.0167 -0.022,-0.0244 -0.0715,-0.071 -0.14955,-0.13691 -0.24024,-0.19092 l -13.18213,-7.85156 c -0.22311,-0.13289 -0.47026,-0.18881 -0.71044,-0.1753 z m -27.6377,16.58301 c -0.54221,0 -0.99702,0.34396 -1.1709,0.82471 -0.007,0.0181 -0.0113,0.0364 -0.0171,0.0547 -0.0207,0.0666 -0.0404,0.13363 -0.0498,0.20459 -1.7e-4,10e-4 -3.3e-4,0.002 -4.9e-4,0.003 -0.007,0.0534 -0.0117,0.10727 -0.0117,0.1626 0,0.0191 0.002,0.0378 0.003,0.0566 5.2e-4,0.0131 0.001,0.026 0.002,0.0391 0.005,0.0607 0.014,0.11936 0.0269,0.17725 0.0128,0.0585 0.0317,0.11474 0.0527,0.1709 0.007,0.0185 0.0122,0.0376 0.02,0.0557 0.0257,0.0597 0.0578,0.11602 0.0928,0.17139 0.007,0.0117 0.0136,0.0242 0.0215,0.0356 0.0383,0.0564 0.0825,0.10856 0.13037,0.1587 0.008,0.008 0.0142,0.0167 0.022,0.0244 0.0715,0.071 0.14955,0.1369 0.24024,0.19092 l 13.18262,7.85156 c 0.59496,0.35437 1.35901,0.16088 1.71337,-0.43408 0.35437,-0.59496 0.16088,-1.3595 -0.43408,-1.71387 l -9.29248,-5.53418 36.36084,0 c 0.6925,0 1.25,-0.5575 1.25,-1.25 0,-0.6925 -0.5575,-1.25 -1.25,-1.25 l -40.8916,0 z"
       id="rect4323-6-1"
       inkscape:connector-curvature="0" />
  </g>
</svg>
