<?xml version="1.0" encoding="UTF-8" standalone="no"?>
<!-- Created with Inkscape (http://www.inkscape.org/) -->

<svg
   xmlns:dc="http://purl.org/dc/elements/1.1/"
   xmlns:cc="http://creativecommons.org/ns#"
   xmlns:rdf="http://www.w3.org/1999/02/22-rdf-syntax-ns#"
   xmlns:svg="http://www.w3.org/2000/svg"
   xmlns="http://www.w3.org/2000/svg"
   xmlns:sodipodi="http://sodipodi.sourceforge.net/DTD/sodipodi-0.dtd"
   xmlns:inkscape="http://www.inkscape.org/namespaces/inkscape"
   width="63.999996"
   height="64"
   viewBox="0 0 63.999997 64.000001"
   id="svg8252"
   version="1.1"
   inkscape:version="0.91 r13725"
   sodipodi:docname="trades.svg">
  <defs
     id="defs8254" />
  <sodipodi:namedview
     id="base"
     pagecolor="#ffffff"
     bordercolor="#666666"
     borderopacity="1.0"
     inkscape:pageopacity="0.0"
     inkscape:pageshadow="2"
     inkscape:zoom="0.35"
     inkscape:cx="242.71429"
     inkscape:cy="-170.85712"
     inkscape:document-units="px"
     inkscape:current-layer="layer1"
     showgrid="false"
     showborder="false"
     units="px"
     fit-margin-top="0"
     fit-margin-left="0"
     fit-margin-right="0"
     fit-margin-bottom="0"
     inkscape:window-width="1366"
     inkscape:window-height="685"
     inkscape:window-x="0"
     inkscape:window-y="24"
     inkscape:window-maximized="1" />
  <metadata
     id="metadata8257">
    <rdf:RDF>
      <cc:Work
         rdf:about="">
        <dc:format>image/svg+xml</dc:format>
        <dc:type
           rdf:resource="http://purl.org/dc/dcmitype/StillImage" />
        <dc:title></dc:title>
      </cc:Work>
    </rdf:RDF>
  </metadata>
  <g
     inkscape:label="Layer 1"
     inkscape:groupmode="layer"
     id="layer1"
     transform="translate(-82.285714,-297.50506)">
    <path
       style="opacity:1;fill:#000000;fill-opacity:1;fill-rule:nonzero;stroke:none;stroke-width:10;stroke-linecap:round;stroke-linejoin:round;stroke-miterlimit:4;stroke-dasharray:none;stroke-opacity:1"
       d="m 114.28571,297.50506 a 32,32 0 0 0 -31.999996,32 32,32 0 0 0 31.999996,32 32,32 0 0 0 32,-32 32,32 0 0 0 -32,-32 z m 0,2.5 a 29.5,29.5 0 0 1 29.5,29.5 29.5,29.5 0 0 1 -29.5,29.5 29.5,29.5 0 0 1 -29.499996,-29.5 29.5,29.5 0 0 1 29.499996,-29.5 z m 19.15967,12.37402 -9.97119,3.15869 2.99951,2.74122 -8.10401,8.00097 -9.15234,-8.86133 c -0.29359,-0.28424 -0.68768,-0.39161 -1.06103,-0.33349 -0.3252,-0.007 -0.6525,0.11223 -0.90332,0.35986 l -11.753416,11.604 c -0.4928,0.48653 -0.49776,1.27479 -0.0112,1.76758 0.48653,0.4928 1.27478,0.49825 1.76758,0.0117 l 11.000476,-10.86084 9.26026,8.96582 c 0.49752,0.48169 1.28588,0.46921 1.76758,-0.0283 0.0317,-0.0327 0.061,-0.067 0.0884,-0.10205 l 8.94873,-8.83545 2.87354,2.62598 2.25049,-10.21436 z m -4.29297,12.10938 c -0.6925,0 -1.25,0.5575 -1.25,1.25 l 0,19.64306 c 0,0.6925 0.5575,1.25 1.25,1.25 0.6925,0 1.25,-0.5575 1.25,-1.25 l 0,-19.64306 c 0,-0.6925 -0.5575,-1.25 -1.25,-1.25 z m -21.51318,1.42871 c -0.6925,0 -1.25,0.5575 -1.25,1.25 l 0,18.21435 c 0,0.6925 0.5575,1.25 1.25,1.25 0.6925,0 1.25,-0.5575 1.25,-1.25 l 0,-18.21435 c 0,-0.6925 -0.5575,-1.25 -1.25,-1.25 z m 16.13476,1.875 c -0.6925,0 -1.25,0.5575 -1.25,1.25 l 0,16.33935 c 0,0.6925 0.5575,1.25 1.25,1.25 0.6925,0 1.25,-0.5575 1.25,-1.25 l 0,-16.33935 c 0,-0.6925 -0.5575,-1.25 -1.25,-1.25 z m -10.75683,1.16064 c -0.6925,0 -1.25,0.5575 -1.25,1.25 l 0,15.17871 c 0,0.6925 0.5575,1.25 1.25,1.25 0.6925,0 1.25,-0.5575 1.25,-1.25 l 0,-15.17871 c 0,-0.6925 -0.5575,-1.25 -1.25,-1.25 z m -10.75635,0.89307 c -0.6925,0 -1.25,0.5575 -1.25,1.25 l 0,14.28564 c 0,0.6925 0.5575,1.25 1.25,1.25 0.6925,0 1.25,-0.5575 1.25,-1.25 l 0,-14.28564 c 0,-0.6925 -0.5575,-1.25 -1.25,-1.25 z m 16.13476,2.14258 c -0.6925,0 -1.25,0.5575 -1.25,1.25 l 0,12.14306 c 0,0.6925 0.5575,1.25 1.25,1.25 0.6925,0 1.25,-0.5575 1.25,-1.25 l 0,-12.14306 c 0,-0.6925 -0.5575,-1.25 -1.25,-1.25 z"
       id="path4475-0-2"
       inkscape:connector-curvature="0" />
  </g>
</svg>
