<?xml version="1.0" encoding="UTF-8" standalone="no"?>
<!-- Created with Inkscape (http://www.inkscape.org/) -->

<svg
   xmlns:dc="http://purl.org/dc/elements/1.1/"
   xmlns:cc="http://creativecommons.org/ns#"
   xmlns:rdf="http://www.w3.org/1999/02/22-rdf-syntax-ns#"
   xmlns:svg="http://www.w3.org/2000/svg"
   xmlns="http://www.w3.org/2000/svg"
   xmlns:sodipodi="http://sodipodi.sourceforge.net/DTD/sodipodi-0.dtd"
   xmlns:inkscape="http://www.inkscape.org/namespaces/inkscape"
   width="63.999996"
   height="63.999996"
   viewBox="0 0 63.999998 63.999997"
   id="svg7645"
   version="1.1"
   inkscape:version="0.91 r13725"
   sodipodi:docname="withdrawal.svg">
  <defs
     id="defs7647" />
  <sodipodi:namedview
     id="base"
     pagecolor="#ffffff"
     bordercolor="#666666"
     borderopacity="1.0"
     inkscape:pageopacity="0.0"
     inkscape:pageshadow="2"
     inkscape:zoom="0.35"
     inkscape:cx="-185.85714"
     inkscape:cy="-2.2857123"
     inkscape:document-units="px"
     inkscape:current-layer="layer1"
     showgrid="false"
     showborder="false"
     fit-margin-top="0"
     fit-margin-left="0"
     fit-margin-right="0"
     fit-margin-bottom="0"
     units="px"
     inkscape:window-width="1366"
     inkscape:window-height="685"
     inkscape:window-x="0"
     inkscape:window-y="24"
     inkscape:window-maximized="1" />
  <metadata
     id="metadata7650">
    <rdf:RDF>
      <cc:Work
         rdf:about="">
        <dc:format>image/svg+xml</dc:format>
        <dc:type
           rdf:resource="http://purl.org/dc/dcmitype/StillImage" />
        <dc:title></dc:title>
      </cc:Work>
    </rdf:RDF>
  </metadata>
  <g
     inkscape:label="Layer 1"
     inkscape:groupmode="layer"
     id="layer1"
     transform="translate(-510.85714,-466.07649)">
    <path
       style="opacity:1;fill:#000000;fill-opacity:1;fill-rule:nonzero;stroke:none;stroke-width:25;stroke-linecap:round;stroke-linejoin:round;stroke-miterlimit:4;stroke-dasharray:none;stroke-opacity:1"
       d="m 542.85714,466.07649 a 32,32 0 0 0 -32,32 32,32 0 0 0 32,32 32,32 0 0 0 32,-32 32,32 0 0 0 -32,-32 z m 0,2.5 a 29.5,29.5 0 0 1 29.5,29.5 29.5,29.5 0 0 1 -29.5,29.5 29.5,29.5 0 0 1 -29.5,-29.5 29.5,29.5 0 0 1 29.5,-29.5 z m -17.85156,17.06445 c -2.72435,0 -4.99561,2.27126 -4.99561,4.99561 l 0,8.33301 c 0,2.72434 2.27126,4.9956 4.99561,4.9956 l 1.1748,0 -2.06591,5.67236 c -0.10491,0.28803 -0.0906,0.57268 0.01,0.8169 0.1679,0.49188 0.62758,0.84619 1.17774,0.84619 l 34.57812,0 c 0.43281,0 0.81291,-0.2179 1.03711,-0.55029 0.24793,-0.28476 0.33115,-0.69348 0.18164,-1.104 l -2.06934,-5.68116 0.97608,0 c 2.72435,0 4.9956,-2.27126 4.9956,-4.9956 l 0,-8.33301 c 0,-2.72435 -2.27125,-4.99561 -4.9956,-4.99561 l -35,0 z m 0,2.49561 35,0 c 1.385,0 2.5,1.115 2.5,2.5 l 0,8.33301 c 0,1.385 -1.115,2.5 -2.5,2.5 l -1.88477,0 -1.5,-4.11866 c -0.0613,-0.16834 -0.15665,-0.31917 -0.27393,-0.44873 -0.2218,-0.34618 -0.60789,-0.57617 -1.05126,-0.57617 l -25.47559,0 c -0.61187,0 -1.1174,0.43561 -1.22705,1.01465 -1.2e-4,2.5e-4 -2.4e-4,7.5e-4 -5e-4,0.001 l -1.50342,4.12793 -2.08349,0 c -1.385,0 -2.5,-1.115 -2.5,-2.5 l 0,-8.33301 c 0,-1.385 1.115,-2.5 2.5,-2.5 z m 1.60742,4.48828 c -0.6925,0 -1.25,0.5575 -1.25,1.25 0,0.6925 0.5575,1.25 1.25,1.25 l 31.78467,0 c 0.6925,0 1.25,-0.5575 1.25,-1.25 0,-0.6925 -0.5575,-1.25 -1.25,-1.25 l -31.78467,0 z m 4.04199,6.20117 23.8999,0 3.63233,9.97461 -31.16504,0 3.63281,-9.97461 z m 11.82031,0.24707 c -1.20614,0 -2.40494,0.49625 -3.25781,1.34912 -0.85287,0.85287 -1.3496,2.05167 -1.34961,3.25781 10e-6,1.20615 0.49674,2.40494 1.34961,3.25782 0.85287,0.85287 2.05167,1.3496 3.25781,1.34961 1.20614,-10e-6 2.40494,-0.49674 3.25782,-1.34961 0.85287,-0.85288 1.34912,-2.05167 1.34912,-3.25782 0,-1.20614 -0.49625,-2.40494 -1.34912,-3.25781 -0.85288,-0.85287 -2.05168,-1.34912 -3.25782,-1.34912 z m 0,0.96582 a 3.641087,3.641087 0 0 1 3.64112,3.64111 3.641087,3.641087 0 0 1 -3.64112,3.64112 3.641087,3.641087 0 0 1 -3.64111,-3.64112 3.641087,3.641087 0 0 1 3.64111,-3.64111 z m -0.84472,0.68067 0,0.44726 0,0.44824 -0.54883,0 -0.54883,0 0,0.28858 0,0.28906 0.22754,0 c 0.12512,5e-5 0.25236,0.007 0.28272,0.0151 0.0737,0.0204 0.16463,0.10502 0.18359,0.1704 0.0104,0.0356 0.0137,0.46094 0.0108,1.31983 l -0.004,1.26709 -0.0469,0.0474 -0.0474,0.0469 -0.24805,0.007 -0.24804,0.007 -0.0542,0.31787 c -0.0299,0.17476 -0.0549,0.32267 -0.0552,0.32861 -2.5e-4,0.006 0.24648,0.0108 0.54834,0.0108 l 0.54883,0 0,0.45508 0,0.45508 0.27441,0 0.27442,0 0,-0.44824 0,-0.44727 0.2168,0 0.21679,0 0,0.44727 0,0.44824 0.27393,0 0.2749,0 0,-0.4541 0,-0.45362 0.11182,-0.009 c 0.78941,-0.0659 1.19796,-0.25868 1.39648,-0.65918 0.0997,-0.20109 0.12442,-0.31013 0.13379,-0.58545 0.009,-0.27251 -0.0104,-0.39144 -0.0908,-0.55224 -0.0951,-0.19015 -0.35881,-0.38949 -0.5957,-0.4502 -0.0799,-0.0205 -0.0929,-0.0351 -0.0449,-0.0503 0.0358,-0.0113 0.17272,-0.12105 0.23096,-0.18505 0.0618,-0.0679 0.13985,-0.22379 0.16455,-0.32862 0.0279,-0.1183 0.0287,-0.37952 10e-4,-0.51123 -0.0284,-0.13505 -0.10757,-0.29156 -0.19677,-0.38916 -0.17819,-0.19496 -0.52053,-0.33432 -0.95166,-0.3872 l -0.15186,-0.0186 -0.003,-0.44385 -0.004,-0.44385 -0.27393,0 -0.27441,0 0,0.43311 0,0.43359 -0.21631,0 -0.2168,0 0,-0.43359 0,-0.43311 -0.27441,0 -0.27442,0 z m 0.87256,1.50976 c 0.28624,-5e-4 0.53251,0.042 0.69726,0.12256 0.16813,0.0822 0.26465,0.23948 0.26465,0.43115 0,0.13809 -0.0319,0.22032 -0.11914,0.30615 -0.0992,0.0977 -0.219,0.15258 -0.41748,0.19288 -0.16058,0.0326 -0.61914,0.06 -0.70215,0.042 l -0.0322,-0.007 0,-0.53857 0,-0.53858 0.18409,-0.008 c 0.0424,-0.002 0.0841,-0.002 0.125,-0.003 z m -0.30909,1.63867 0.27197,0 c 0.72028,0 1.07112,0.11614 1.21095,0.40088 0.0354,0.072 0.0405,0.0994 0.0395,0.20606 -7.5e-4,0.0924 -0.009,0.13958 -0.0317,0.19091 -0.0872,0.19355 -0.29112,0.30972 -0.65331,0.37354 -0.11935,0.021 -0.26016,0.0316 -0.50147,0.0376 l -0.33594,0.009 0,-0.60889 0,-0.60889 z"
       id="rect4323-6-6-7"
       inkscape:connector-curvature="0" />
  </g>
</svg>
